<?xml version="1.0" encoding="UTF-8"?>
<svg xmlns="http://www.w3.org/2000/svg" viewBox="0 0 64 64">
  <g>
    <circle cx="32" cy="32" r="30" fill="#fff" stroke="#222" stroke-width="3"/>
    <g stroke="#222" stroke-width="2" fill="none">
      <path d="M32 12 Q36 24 32 32 Q28 24 32 12 Z" fill="#b71c1c"/>
      <path d="M32 12 Q40 20 32 32 Q24 20 32 12 Z" fill="#d32f2f"/>
      <path d="M32 32 Q36 44 32 52 Q28 44 32 32 Z" fill="#b71c1c"/>
      <path d="M32 32 Q44 36 52 32 Q44 28 32 32 Z" fill="#d32f2f"/>
      <path d="M32 32 Q36 20 52 32 Q36 44 32 32 Z" fill="#b71c1c"/>
      <path d="M32 32 Q20 36 12 32 Q20 28 32 32 Z" fill="#d32f2f"/>
      <path d="M32 32 Q28 20 12 32 Q28 44 32 32 Z" fill="#b71c1c"/>
    </g>
    <circle cx="32" cy="32" r="6" fill="#fff" stroke="#222" stroke-width="2"/>
  </g>
</svg>
